<?xml version="1.0" encoding="UTF-8" standalone="no"?>
<svg
   xmlns:dc="http://purl.org/dc/elements/1.1/"
   xmlns:cc="http://creativecommons.org/ns#"
   xmlns:rdf="http://www.w3.org/1999/02/22-rdf-syntax-ns#"
   xmlns:svg="http://www.w3.org/2000/svg"
   xmlns="http://www.w3.org/2000/svg"
   xmlns:sodipodi="http://sodipodi.sourceforge.net/DTD/sodipodi-0.dtd"
   xmlns:inkscape="http://www.inkscape.org/namespaces/inkscape"
   inkscape:version="1.0 (4035a4fb49, 2020-05-01)"
   sodipodi:docname="uv.svg"
   id="svg14"
   preserveAspectRatio="xMidYMid meet"
   viewBox="0 0 585.747748 756.223042"
   height="756.223042pt"
   width="585.747748pt"
   version="1.0">
  <defs
     id="defs18" />
  <sodipodi:namedview
     inkscape:current-layer="svg14"
     inkscape:window-maximized="1"
     inkscape:window-y="-8"
     inkscape:window-x="1352"
     inkscape:cy="695.45709"
     inkscape:cx="272.11192"
     inkscape:zoom="0.42150264"
     showgrid="false"
     id="namedview16"
     inkscape:window-height="1017"
     inkscape:window-width="1920"
     inkscape:pageshadow="2"
     inkscape:pageopacity="0"
     guidetolerance="10"
     gridtolerance="10"
     objecttolerance="10"
     borderopacity="1"
     bordercolor="#666666"
     pagecolor="#ffffff" />
  <metadata
     id="metadata2">
Created by potrace 1.12, written by Peter Selinger 2001-2015
<rdf:RDF>
  <cc:Work
     rdf:about="">
    <dc:format>image/svg+xml</dc:format>
    <dc:type
       rdf:resource="http://purl.org/dc/dcmitype/StillImage" />
  </cc:Work>
</rdf:RDF>
</metadata>
  <g
     id="g12"
     stroke="none"
     fill="#000000"
     transform="translate(-237.704423,765.974274) scale(0.100000,-0.100000)">
    <path
       style="fill:#005baa;fill-opacity:1"
       id="path4"
       d="M5241 7564 c-289 -435 -437 -766 -530 -1189 -46 -212 -62 -362 -62 -596 1 -421 78 -793 240 -1153 17 -38 30 -71 28 -73 -2 -2 -17 16 -32 39 -130 197 -345 383 -560 484 -199 93 -439 141 -650 130 -139 -7 -157 -9 -285 -42 -267 -69 -463 -183 -655 -382 -169 -176 -277 -375 -332 -615 -23 -97 -26 -134 -26 -277 0 -181 12 -259 64 -415 84 -251 282 -512 502 -659 101 -67 252 -143 347 -174 63 -21 232 -61 258 -62 29 0 8 20 -51 50 -195 98 -349 281 -417 496 -27 84 -37 259 -22 357 25 158 107 314 231 437 99 99 193 157 326 203 84 29 99 31 235 31 166 0 225 -12 357 -75 140 -67 264 -183 351 -330 23 -38 378 -844 610 -1381 75 -175 139 -314 143 -310 4 4 41 86 82 182 76 177 153 355 290 665 235 534 297 677 297 681 0 20 102 205 143 260 98 129 250 234 417 285 64 20 97 23 220 23 124 0 156 -3 220 -23 276 -86 490 -302 561 -567 29 -106 31 -309 5 -404 -63 -232 -223 -428 -433 -534 -50 -25 -69 -46 -40 -46 28 1 189 40 261 64 301 101 588 338 744 614 54 95 106 226 134 337 19 79 22 116 23 295 0 192 -2 211 -28 309 -67 254 -187 454 -379 636 -195 184 -439 305 -718 356 -110 20 -373 17 -480 -5 -197 -42 -382 -118 -529 -219 -97 -66 -282 -250 -349 -346 -60 -86 -65 -82 -21 16 154 338 239 743 239 1138 0 617 -195 1209 -587 1778 -41 59 -75 107 -76 107 -1 0 -31 -44 -66 -96z" />
    <path
       style="fill:#00ab4f;fill-opacity:1"
       id="path6"
       d="M3819 3363 c35 -33 55 -72 155 -303 63 -146 175 -407 251 -580 75 -173 174 -403 220 -510 82 -194 198 -462 564 -1305 114 -260 202 -450 217 -466 14 -15 38 -29 54 -32 36 -8 93 8 114 32 15 17 131 278 401 901 150 348 348 806 403 935 28 66 92 215 142 330 51 116 162 372 247 570 85 198 164 374 174 392 11 17 34 41 52 52 l32 21 -390 -2 -390 -3 -34 -24 c-36 -26 -76 -103 -186 -362 -112 -261 -527 -1204 -534 -1212 -4 -4 -32 50 -63 120 -201 460 -537 1224 -575 1309 -46 105 -77 145 -126 163 -18 7 -161 11 -399 11 l-371 0 42 -37z" />
    <path
       style="fill:#005baa;fill-opacity:1"
       id="path8"
       d="M3783 3023 c4 -104 13 -406 21 -673 26 -814 37 -1051 52 -1125 63 -305 229 -581 458 -759 159 -125 320 -211 513 -275 153 -52 343 -98 343 -85 0 3 -13 24 -29 47 -33 49 -78 136 -116 227 -15 36 -36 83 -46 105 -28 62 -240 553 -351 815 -106 248 -354 823 -443 1025 -29 66 -111 257 -183 425 -170 399 -198 460 -213 460 -9 0 -11 -44 -6 -187z" />
    <path
       style="fill:#005baa;fill-opacity:1"
       id="path10"
       d="M6809 3194 c-7 -9 -30 -55 -50 -103 -20 -47 -109 -255 -198 -461 -90 -206 -205 -472 -256 -590 -51 -118 -129 -298 -173 -400 -44 -102 -139 -322 -210 -490 -339 -792 -406 -940 -469 -1029 l-17 -23 34 7 c625 128 1045 434 1221 890 67 171 79 246 89 535 5 146 14 393 20 550 6 157 15 413 20 570 5 157 12 347 16 423 5 136 1 155 -27 121z" />
  </g>
</svg>
